<svg height="448pt" viewBox="0 0 448 448" width="448pt" xmlns="http://www.w3.org/2000/svg"><path d="m448 64h-448v360c0 13.253906 10.746094 24 24 24h400c13.253906 0 24-10.746094 24-24zm-104 80h32v16h-32zm-224 0h208v16h-208zm144 72v72c0 13.253906-10.746094 24-24 24h-32c-13.253906 0-24-10.746094-24-24v-72c0-13.253906 10.746094-24 24-24h32c13.253906 0 24 10.746094 24 24zm-192-72h32v16h-32zm-7.199219 139.472656c-1.335937-2.773437-.964843-6.070312.960938-8.472656l64-80c2.121093-2.648438 5.6875-3.667969 8.886719-2.542969 3.203124 1.125 5.347656 4.148438 5.351562 7.542969v72h24v16h-24v24h-16v-24h-56c-3.070312-.003906-5.867188-1.761719-7.199219-4.527344zm39.199219 76.527344h-32v-16h32zm224 0h-208v-16h208zm48 0h-32v-16h32zm8-72h-24v24h-16v-24h-56c-3.078125 0-5.878906-1.761719-7.214844-4.535156-1.332031-2.773438-.957031-6.0625.96875-8.464844l64-80c2.121094-2.652344 5.6875-3.679688 8.894532-2.550781 3.207031 1.125 5.351562 4.152343 5.351562 7.550781v72h24zm0 0"/><path d="m128 222.808594-39.351562 49.191406h39.351562zm0 0"/><path d="m208 208h32c4.417969 0 8 3.582031 8 8v72c0 4.417969-3.582031 8-8 8h-32c-4.417969 0-8-3.582031-8-8v-72c0-4.417969 3.582031-8 8-8zm0 0"/><path d="m344 272v-49.191406l-39.351562 49.191406zm0 0"/><path d="m448 24c0-13.253906-10.746094-24-24-24h-400c-13.253906 0-24 10.746094-24 24v24h448zm-400 8h-16v-16h16zm32 0h-16v-16h16zm32 0h-16v-16h16zm272 0h-224v-16h224zm0 0"/></svg>